<svg width="42" height="42" viewBox="0 0 42 42" fill="none" xmlns="http://www.w3.org/2000/svg">
<path d="M34.1267 17.06C34.1267 20.8247 32.9043 24.3023 30.8453 27.1238L41.2309 37.5156C42.2564 38.5408 42.2564 40.2058 41.2309 41.2311C40.2055 42.2563 38.5402 42.2563 37.5147 41.2311L27.1291 30.8392C24.307 32.9061 20.8288 34.12 17.0633 34.12C7.63748 34.12 0 26.484 0 17.06C0 7.63599 7.63748 0 17.0633 0C26.4892 0 34.1267 7.63599 34.1267 17.06ZM17.0633 28.8708C18.6146 28.8708 20.1508 28.5653 21.584 27.9717C23.0172 27.3782 24.3195 26.5082 25.4164 25.4115C26.5134 24.3147 27.3835 23.0127 27.9772 21.5798C28.5709 20.1468 28.8764 18.611 28.8764 17.06C28.8764 15.509 28.5709 13.9732 27.9772 12.5402C27.3835 11.1073 26.5134 9.80526 25.4164 8.70852C24.3195 7.61179 23.0172 6.74182 21.584 6.14827C20.1508 5.55473 18.6146 5.24923 17.0633 5.24923C15.512 5.24923 13.9759 5.55473 12.5427 6.14827C11.1094 6.74182 9.80717 7.61179 8.71023 8.70852C7.61328 9.80526 6.74314 11.1073 6.14947 12.5402C5.55581 13.9732 5.25026 15.509 5.25026 17.06C5.25026 18.611 5.55581 20.1468 6.14947 21.5798C6.74314 23.0127 7.61328 24.3147 8.71023 25.4115C9.80717 26.5082 11.1094 27.3782 12.5427 27.9717C13.9759 28.5653 15.512 28.8708 17.0633 28.8708Z" fill="black"/>
<g filter="url(#filter0_i_1_40)">
<path d="M13.8494 16.779C13.7304 17.3231 13.245 17.7318 12.6657 17.7318C12.5113 17.7318 12.3861 17.857 12.3861 18.0114C12.3861 18.1659 12.5113 18.2911 12.6657 18.2911C13.5521 18.2911 14.2885 17.6365 14.4169 16.7853C14.9596 16.7266 15.4606 16.4847 15.8485 16.0889C15.9566 15.9785 15.9547 15.8015 15.8444 15.6934C15.7341 15.5854 15.5571 15.5871 15.449 15.6974C15.106 16.0476 14.6472 16.2404 14.1571 16.2404C13.16 16.2404 12.3488 15.4291 12.3488 14.432C12.3488 14.2775 12.2236 14.1523 12.0691 14.1523C11.9147 14.1523 11.7895 14.2775 11.7895 14.432C11.7895 15.6332 12.6888 16.6275 13.8494 16.779Z" fill="black"/>
<path d="M15.0334 19.2046C15.0334 19.0501 14.9082 18.9249 14.7537 18.9249C13.4482 18.9249 12.3861 19.9871 12.3861 21.2926C12.3861 21.3061 12.3865 21.3196 12.3868 21.3332C12.2828 21.3191 12.1769 21.3112 12.0691 21.3112C11.9147 21.3112 11.7895 21.4364 11.7895 21.5909C11.7895 21.7453 11.9147 21.8705 12.0691 21.8705C13.0663 21.8705 13.8775 22.6817 13.8775 23.6789C13.8775 23.8334 14.0027 23.9585 14.1571 23.9585C14.3116 23.9585 14.4368 23.8334 14.4368 23.6789C14.4368 22.6867 13.823 21.8356 12.9554 21.484C12.9487 21.4206 12.9454 21.3565 12.9454 21.2926C12.9454 20.2954 13.7566 19.4842 14.7537 19.4842C14.9082 19.4842 15.0334 19.359 15.0334 19.2046Z" fill="black"/>
<path d="M24.5786 16.8183C24.5786 16.1816 24.3243 15.5783 23.8748 15.1346C23.946 14.9068 23.982 14.6713 23.982 14.432C23.982 13.2808 23.1561 12.3194 22.0657 12.108C22.1491 11.9003 22.1923 11.6776 22.1923 11.4491C22.1923 10.7199 21.7492 10.0924 21.1182 9.82116C20.067 8.98386 18.9172 8.48486 18.0349 8.48486C17.5445 8.48486 17.1096 8.72603 16.8418 9.09576C16.5739 8.72603 16.139 8.48486 15.6486 8.48486C14.7663 8.48486 13.6166 8.98386 12.5653 9.82116C11.9343 10.0924 11.4912 10.7199 11.4912 11.4491C11.4912 11.6776 11.5344 11.9003 11.6178 12.108C10.5275 12.3194 9.70149 13.2808 9.70149 14.432C9.70149 14.6713 9.73748 14.9068 9.80869 15.1346C9.35921 15.5783 9.10492 16.1816 9.10492 16.8183C9.10492 17.316 9.25962 17.7781 9.52301 18.1596C9.24929 18.5553 9.10492 19.0169 9.10492 19.5029C9.10492 20.3637 9.57424 21.1525 10.3173 21.5684C10.3045 21.6747 10.2981 21.782 10.2981 21.8892C10.2981 23.0504 11.0555 24.0771 12.1545 24.427C12.6326 25.2451 13.5034 25.7483 14.4555 25.7483C15.4993 25.7483 16.4044 25.1449 16.8418 24.269C17.2792 25.1449 18.1842 25.7483 19.2281 25.7483C20.1802 25.7483 21.0509 25.2451 21.529 24.427C22.628 24.077 23.3854 23.0504 23.3854 21.8892C23.3854 21.782 23.379 21.6747 23.3662 21.5684C24.1093 21.1525 24.5786 20.3637 24.5786 19.5029C24.5786 19.0169 24.4342 18.5553 24.1605 18.1596C24.4239 17.7781 24.5786 17.316 24.5786 16.8183ZM14.4555 25.189C13.6714 25.189 12.9569 24.7567 12.5908 24.0609C12.5545 23.9919 12.4912 23.9412 12.416 23.921C11.4983 23.674 10.8574 22.8385 10.8574 21.8892C10.8574 21.7471 10.8717 21.6048 10.8999 21.4662C10.9261 21.3377 10.8594 21.2082 10.7395 21.1549C10.0863 20.8645 9.66421 20.216 9.66421 19.5029C9.66421 19.1785 9.74833 18.8685 9.90884 18.5939C10.3263 18.9619 10.8736 19.1859 11.4726 19.1859C11.627 19.1859 11.7522 19.0608 11.7522 18.9063C11.7522 18.7518 11.627 18.6266 11.4726 18.6266C10.4754 18.6266 9.66421 17.8154 9.66421 16.8183C9.66421 16.2815 9.90105 15.7756 10.314 15.4305C10.4072 15.3525 10.4395 15.2233 10.3938 15.1108C10.3055 14.8932 10.2608 14.6648 10.2608 14.432C10.2608 13.4348 11.072 12.6236 12.0692 12.6236C13.0663 12.6236 13.8775 13.4348 13.8775 14.432C13.8775 14.5865 14.0027 14.7116 14.1572 14.7116C14.3116 14.7116 14.4368 14.5865 14.4368 14.432C14.4368 13.1776 13.4561 12.1485 12.2212 12.0697C12.1093 11.8826 12.0505 11.6699 12.0505 11.4491C12.0505 10.9506 12.3531 10.5216 12.7842 10.3358C12.8009 10.3308 12.8172 10.3243 12.833 10.3161C12.9666 10.2653 13.1112 10.2373 13.2623 10.2373C13.7305 10.2373 14.1485 10.4991 14.3531 10.9206C14.4206 11.0595 14.588 11.1175 14.7269 11.05C14.8658 10.9825 14.9237 10.8152 14.8562 10.6763C14.6226 10.1952 14.1804 9.84938 13.6712 9.7269C14.3849 9.2914 15.0876 9.04415 15.6486 9.04415C16.1523 9.04415 16.5621 9.45393 16.5621 9.95766V13.5763C16.3108 13.377 15.9935 13.2575 15.6486 13.2575C15.4942 13.2575 15.369 13.3826 15.369 13.5371C15.369 13.6916 15.4942 13.8168 15.6486 13.8168C16.1523 13.8168 16.5621 14.2265 16.5621 14.7303V21.4521C16.2144 21.0036 15.7243 20.665 15.1477 20.5101C14.9986 20.4701 14.8451 20.5584 14.805 20.7076C14.765 20.8568 14.8534 21.0102 15.0026 21.0502C15.9208 21.2969 16.5621 22.1325 16.5621 23.0823C16.5621 24.2439 15.6171 25.189 14.4555 25.189ZM22.944 21.1549C22.8241 21.2082 22.7574 21.3377 22.7836 21.4662C22.8118 21.6049 22.8262 21.7471 22.8262 21.8892C22.8262 22.8385 22.1852 23.674 21.2675 23.921C21.1923 23.9413 21.1289 23.9919 21.0927 24.0609C20.7266 24.7567 20.0121 25.189 19.2281 25.189C18.0665 25.189 17.1214 24.2439 17.1214 23.0823C17.1214 23.0037 17.1177 22.9257 17.1109 22.8485C17.1176 22.8246 17.1214 22.7995 17.1214 22.7735V13.5371C17.1214 13.0334 17.5312 12.6236 18.0349 12.6236C18.1893 12.6236 18.3146 12.4984 18.3146 12.344C18.3146 12.1895 18.1893 12.0643 18.0349 12.0643C17.69 12.0643 17.3727 12.1838 17.1214 12.3831V9.95766C17.1214 9.45393 17.5312 9.04415 18.0349 9.04415C18.5959 9.04415 19.2986 9.2914 20.0123 9.7269C19.5031 9.84934 19.0609 10.1952 18.8273 10.6763C18.7598 10.8152 18.8177 10.9825 18.9567 11.05C19.0956 11.1174 19.2629 11.0595 19.3304 10.9206C19.535 10.4991 19.953 10.2373 20.4212 10.2373C20.5723 10.2373 20.717 10.2653 20.8505 10.3161C20.8663 10.3243 20.8826 10.3308 20.8992 10.3357C21.3304 10.5216 21.633 10.9506 21.633 11.4491C21.633 11.6699 21.5742 11.8826 21.4623 12.0697C20.2274 12.1485 19.2467 13.1776 19.2467 14.432C19.2467 14.5865 19.3719 14.7116 19.5263 14.7116C19.6808 14.7116 19.806 14.5865 19.806 14.432C19.806 13.4348 20.6172 12.6236 21.6144 12.6236C22.6115 12.6236 23.4227 13.4348 23.4227 14.432C23.4227 14.6648 23.378 14.8932 23.2897 15.1108C23.2441 15.2234 23.2763 15.3525 23.3695 15.4305C23.7825 15.7756 24.0193 16.2815 24.0193 16.8183C24.0193 17.8154 23.2081 18.6266 22.2109 18.6266C22.0565 18.6266 21.9313 18.7518 21.9313 18.9063C21.9313 19.0608 22.0565 19.1859 22.2109 19.1859C22.8099 19.1859 23.3572 18.9619 23.7747 18.5939C23.9352 18.8685 24.0193 19.1785 24.0193 19.5029C24.0193 20.216 23.5972 20.8645 22.944 21.1549Z" fill="black"/>
<path d="M21.6143 17.4335C21.0351 17.4335 20.5497 17.0248 20.4307 16.4807C21.5913 16.3292 22.4906 15.3348 22.4906 14.1336C22.4906 13.9792 22.3654 13.854 22.2109 13.854C22.0565 13.854 21.9313 13.9792 21.9313 14.1336C21.9313 15.1308 21.12 15.942 20.1229 15.942C19.6329 15.942 19.1741 15.7492 18.8311 15.3991C18.723 15.2888 18.546 15.287 18.4356 15.3951C18.3253 15.5032 18.3235 15.6802 18.4316 15.7905C18.8194 16.1864 19.3204 16.4282 19.8632 16.4869C19.9916 17.3381 20.7279 17.9927 21.6143 17.9927C21.7688 17.9927 21.894 17.8676 21.894 17.7131C21.894 17.5586 21.7688 17.4335 21.6143 17.4335Z" fill="black"/>
<path d="M20.7195 20.7147C20.6117 20.7147 20.5058 20.7226 20.4018 20.7366C20.4021 20.7231 20.4026 20.7095 20.4026 20.696C20.4026 19.3905 19.3404 18.3284 18.0349 18.3284C17.8805 18.3284 17.7552 18.4535 17.7552 18.608C17.7552 18.7625 17.8805 18.8877 18.0349 18.8877C19.032 18.8877 19.8433 19.6989 19.8433 20.696C19.8433 20.7599 19.8399 20.8241 19.8332 20.8874C18.9656 21.239 18.3518 22.0901 18.3518 23.0823C18.3518 23.2368 18.477 23.362 18.6315 23.362C18.7859 23.362 18.9111 23.2368 18.9111 23.0823C18.9111 22.0852 19.7223 21.274 20.7195 21.274C20.8739 21.274 20.9991 21.1488 20.9991 20.9943C20.9991 20.8398 20.8739 20.7147 20.7195 20.7147Z" fill="black"/>
</g>
<defs>
<filter id="filter0_i_1_40" x="9.10492" y="8.48486" width="15.4737" height="21.2634" filterUnits="userSpaceOnUse" color-interpolation-filters="sRGB">
<feFlood flood-opacity="0" result="BackgroundImageFix"/>
<feBlend mode="normal" in="SourceGraphic" in2="BackgroundImageFix" result="shape"/>
<feColorMatrix in="SourceAlpha" type="matrix" values="0 0 0 0 0 0 0 0 0 0 0 0 0 0 0 0 0 0 127 0" result="hardAlpha"/>
<feOffset dy="4"/>
<feGaussianBlur stdDeviation="2"/>
<feComposite in2="hardAlpha" operator="arithmetic" k2="-1" k3="1"/>
<feColorMatrix type="matrix" values="0 0 0 0 0 0 0 0 0 0 0 0 0 0 0 0 0 0 0.25 0"/>
<feBlend mode="normal" in2="shape" result="effect1_innerShadow_1_40"/>
</filter>
</defs>
</svg>
