<svg width="42" height="42" viewBox="0 0 42 42" fill="none" xmlns="http://www.w3.org/2000/svg">
<path d="M34.1267 17.06C34.1267 20.8247 32.9043 24.3023 30.8453 27.1238L41.2309 37.5156C42.2564 38.5408 42.2564 40.2058 41.2309 41.2311C40.2055 42.2563 38.5402 42.2563 37.5147 41.2311L27.1291 30.8392C24.307 32.9061 20.8288 34.12 17.0633 34.12C7.63748 34.12 0 26.484 0 17.06C0 7.63599 7.63748 0 17.0633 0C26.4892 0 34.1267 7.63599 34.1267 17.06ZM17.0633 28.8708C18.6146 28.8708 20.1508 28.5653 21.584 27.9717C23.0172 27.3782 24.3195 26.5082 25.4164 25.4115C26.5134 24.3147 27.3835 23.0127 27.9772 21.5798C28.5709 20.1468 28.8764 18.611 28.8764 17.06C28.8764 15.509 28.5709 13.9732 27.9772 12.5402C27.3835 11.1073 26.5134 9.80526 25.4164 8.70852C24.3195 7.61179 23.0172 6.74182 21.584 6.14827C20.1508 5.55473 18.6146 5.24923 17.0633 5.24923C15.512 5.24923 13.9759 5.55473 12.5427 6.14827C11.1094 6.74182 9.80717 7.61179 8.71023 8.70852C7.61328 9.80526 6.74314 11.1073 6.14947 12.5402C5.55581 13.9732 5.25026 15.509 5.25026 17.06C5.25026 18.611 5.55581 20.1468 6.14947 21.5798C6.74314 23.0127 7.61328 24.3147 8.71023 25.4115C9.80717 26.5082 11.1094 27.3782 12.5427 27.9717C13.9759 28.5653 15.512 28.8708 17.0633 28.8708Z" fill="black"/>
<path d="M20.164 15.5052C20.0353 15.4324 19.8719 15.4778 19.7991 15.6065C19.7263 15.7352 19.7717 15.899 19.9006 15.9718C20.0983 16.0844 20.219 16.21 20.2988 16.3398C19.9685 16.4558 19.6758 16.5035 19.4172 16.5035C19.0387 16.5032 18.7291 16.4033 18.468 16.2502C18.2076 16.0967 17.997 15.887 17.8374 15.6693C17.5742 15.3106 17.2318 14.991 16.8283 14.7579C16.4253 14.5255 15.9591 14.3802 15.4587 14.3802C15.02 14.3799 14.5576 14.4929 14.0995 14.7445C13.9122 14.8472 13.7498 14.9673 13.6084 15.0984C13.0511 15.313 12.5708 15.3902 12.1646 15.3902C11.5858 15.3902 11.1534 15.2347 10.8643 15.0819C10.72 15.0057 10.612 14.9298 10.5421 14.8749C10.5071 14.8471 10.4816 14.8251 10.4657 14.8107L10.4493 14.7949L10.4467 14.7925H10.4466C10.3439 14.6871 10.175 14.6844 10.0687 14.7867C9.96233 14.8893 9.95924 15.0589 10.0619 15.1653C10.0768 15.1804 10.261 15.3689 10.6136 15.5556C10.7679 15.6373 10.957 15.7177 11.1755 15.7832C11.1175 15.8649 11.0382 15.9844 10.9519 16.1365C10.7859 16.4293 10.5952 16.8402 10.498 17.325C10.469 17.4698 10.5631 17.6109 10.7081 17.6401C10.8532 17.6689 10.9944 17.5748 11.0233 17.4297C11.1048 17.0215 11.2713 16.6586 11.4179 16.4008C11.491 16.2717 11.5588 16.1691 11.6076 16.1001C11.6319 16.0654 11.6515 16.039 11.6646 16.0218C11.6711 16.0135 11.676 16.007 11.679 16.0032L11.6821 15.9995L11.6824 15.9991L11.6826 15.9988C11.7073 15.9686 11.7238 15.9346 11.7332 15.8989C11.8695 15.9157 12.0126 15.926 12.1646 15.9256C12.4462 15.926 12.7547 15.8927 13.0868 15.8172C12.9222 16.1721 12.8544 16.5426 12.8542 16.8821C12.8549 17.224 12.92 17.5343 13.036 17.7815C13.0993 17.9154 13.2591 17.9723 13.3928 17.9092C13.5265 17.846 13.5837 17.6861 13.5203 17.5525V17.5522C13.4459 17.397 13.3892 17.1526 13.3901 16.8821C13.3899 16.5903 13.4529 16.269 13.6039 15.9758C13.7558 15.6826 13.9917 15.4152 14.3571 15.214C14.7428 15.0029 15.111 14.9164 15.4587 14.9161C15.8547 14.9161 16.2277 15.0304 16.5607 15.2219C16.8933 15.4138 17.1839 15.684 17.4053 15.986C17.6001 16.2518 17.8607 16.514 18.1961 16.7118C18.5308 16.9095 18.9417 17.0396 19.4172 17.0392C19.7318 17.0392 20.0736 16.9822 20.4405 16.8573L20.4414 16.8765C20.4414 17.0077 20.421 17.1271 20.4006 17.2115C20.3904 17.2538 20.3803 17.2871 20.3733 17.3087C20.3697 17.3193 20.3669 17.3272 20.3652 17.3317L20.3637 17.3358L20.3635 17.3365H20.3637C20.3094 17.4735 20.3762 17.6286 20.5132 17.6835C20.6505 17.7385 20.8065 17.6715 20.8614 17.5342C20.8683 17.515 20.9761 17.2476 20.9771 16.8765C20.9771 16.6636 20.9399 16.4137 20.8161 16.1669C20.6932 15.9203 20.4811 15.6834 20.164 15.5052Z" fill="black"/>
<path d="M20.7614 13.7164C20.025 13.7164 19.4337 13.4452 19.0247 13.0902C18.8206 12.9131 18.6637 12.715 18.5606 12.5255C18.4569 12.3357 18.4093 12.1551 18.41 12.0198C18.41 11.8719 18.2901 11.7521 18.1421 11.7521C17.9942 11.7521 17.8743 11.8719 17.8743 12.0198C17.875 12.2718 17.9538 12.53 18.0901 12.7813C18.2327 13.0429 18.4411 13.2969 18.706 13.5207C18.6526 13.5949 18.5789 13.6903 18.4849 13.7926C18.2808 14.0154 17.9866 14.2622 17.6354 14.3868C17.496 14.4366 17.4234 14.5901 17.4732 14.7291C17.523 14.8685 17.6763 14.9413 17.8155 14.8914C18.2921 14.7201 18.649 14.4078 18.891 14.142C18.9988 14.0232 19.0827 13.9148 19.1447 13.8279C19.5879 14.0837 20.1353 14.2526 20.7614 14.2522C20.9092 14.2522 21.0294 14.1324 21.0294 13.9845C21.0293 13.8366 20.9091 13.7164 20.7614 13.7164Z" fill="black"/>
<path d="M18.9755 18.955C18.4744 18.955 18.0762 18.8581 17.7562 18.7102C17.2773 18.4877 16.9666 18.1459 16.7711 17.8049C16.6736 17.635 16.6064 17.4658 16.5639 17.3171C16.5214 17.1692 16.5047 17.0394 16.505 16.9608C16.505 16.8129 16.3853 16.693 16.2373 16.693C16.0891 16.693 15.9694 16.8128 15.9694 16.9608C15.9694 17.0573 15.9808 17.164 16.0044 17.2814C16.0452 17.486 16.123 17.7226 16.249 17.9663C16.438 18.3316 16.738 18.7146 17.1864 19.0058C17.2986 19.0792 17.4201 19.1459 17.5509 19.2056C17.5713 19.2934 17.5997 19.45 17.5995 19.6388C17.5995 19.7761 17.5847 19.9292 17.5432 20.0861C17.5016 20.243 17.434 20.403 17.3266 20.5585C17.2423 20.6803 17.2727 20.8472 17.3944 20.9313C17.5161 21.0154 17.6829 20.9852 17.7671 20.8637C17.9133 20.6522 18.0059 20.4325 18.0612 20.2231C18.1167 20.0133 18.1352 19.8139 18.1352 19.6388C18.1352 19.5512 18.1304 19.4702 18.1232 19.3961C18.3814 19.4562 18.6642 19.4912 18.9755 19.4908C19.1234 19.4908 19.2433 19.3707 19.2433 19.2227C19.2433 19.0751 19.1234 18.955 18.9755 18.955Z" fill="black"/>
<path d="M22.6143 14.931C22.4816 14.8167 22.3384 14.723 22.1874 14.6563C22.0365 14.5898 21.877 14.5499 21.7138 14.5499C21.5658 14.5499 21.4459 14.6697 21.4459 14.8177C21.4459 14.966 21.5658 15.0858 21.7138 15.0858C21.8123 15.0855 21.9369 15.1198 22.0679 15.1957C22.2642 15.3083 22.4684 15.5104 22.6168 15.7638C22.7661 16.0168 22.8607 16.3179 22.8606 16.6289C22.8594 16.9712 22.7516 17.3282 22.4598 17.6832C22.3656 17.7975 22.3817 17.966 22.4958 18.0604C22.6098 18.1545 22.7787 18.1384 22.8729 18.0244C23.2406 17.5808 23.3974 17.0889 23.3962 16.6289C23.3962 16.3494 23.3403 16.0821 23.2463 15.8383C23.1048 15.473 22.8794 15.1603 22.6143 14.931Z" fill="black"/>
<path d="M13.2867 13.5029V13.5025C13.4707 13.2845 13.7328 13.1136 14.0317 12.9986C14.33 12.8833 14.663 12.8256 14.9745 12.8259C15.278 12.8252 15.5605 12.8812 15.7677 12.9776C15.9021 13.0394 16.0612 12.9811 16.1234 12.8465C16.1853 12.7123 16.1266 12.5534 15.9924 12.4912C15.6931 12.3535 15.3414 12.2903 14.9746 12.29C14.598 12.29 14.205 12.358 13.8391 12.4984C13.4741 12.6391 13.134 12.8541 12.8778 13.1565C12.7822 13.2694 12.7962 13.4386 12.9092 13.5341C13.022 13.6299 13.1911 13.6155 13.2867 13.5029Z" fill="black"/>
<path d="M25.411 12.7288L25.4112 12.7291L25.411 12.7288Z" fill="black"/>
<path d="M19.7861 21.6721V21.6725H19.7859L19.7861 21.6721Z" fill="black"/>
<path d="M25.8202 14.5423C25.7729 14.4943 25.7221 14.4486 25.6706 14.4037C25.6975 14.2537 25.7131 14.1009 25.7131 13.9457C25.7133 13.5344 25.6153 13.1157 25.4112 12.7291C25.1779 12.2859 24.8324 11.9343 24.429 11.6961C24.1469 11.5293 23.8366 11.4181 23.5149 11.3662C23.4368 11.0885 23.3144 10.8241 23.15 10.5842C22.8762 10.1846 22.4869 9.85373 22.0106 9.64876C21.6699 9.50217 21.3123 9.4318 20.9611 9.4318C20.9611 9.4318 20.9503 9.43145 20.9306 9.43319C20.4847 9.43837 20.0506 9.55541 19.6666 9.76928C19.5164 9.58836 19.3427 9.42735 19.1494 9.29175C18.7258 8.99413 18.2078 8.81765 17.6535 8.81216C17.6471 8.81181 17.6394 8.81151 17.63 8.81116C17.6288 8.81116 17.6276 8.81116 17.6263 8.81116H17.6259H17.6256H17.6254C17.6246 8.81116 17.6237 8.81116 17.6229 8.81116C17.6177 8.81116 17.6115 8.81151 17.6036 8.81181C17.121 8.8156 16.6649 8.94881 16.2753 9.17946C16.1064 9.27902 15.9523 9.39881 15.8108 9.53202C15.4071 9.28038 14.9301 9.13344 14.422 9.13105L14.4202 9.13074H14.4081C14.4078 9.13074 14.4076 9.13074 14.4073 9.13074C14.4066 9.13074 14.4059 9.13074 14.4051 9.13074C14.3989 9.13074 14.3912 9.13105 14.3814 9.13174C13.8409 9.13689 13.334 9.30443 12.9161 9.58867C12.6739 9.75312 12.4619 9.9567 12.2866 10.1897C12.0649 10.1297 11.8333 10.0971 11.5968 10.0971C11.3999 10.0971 11.2003 10.1194 11.0015 10.1647C10.4162 10.2989 9.91623 10.6199 9.55795 11.0487H9.55814C9.30669 11.349 9.12527 11.7033 9.0257 12.0854C8.64394 12.2149 8.28419 12.4318 7.98328 12.7383C7.98313 12.7387 7.98278 12.739 7.98243 12.7394C7.47779 13.254 7.22375 13.9271 7.22395 14.5955V14.5965V14.5979C7.22395 14.5979 7.22395 14.5986 7.22395 14.5993V14.6065H7.2241C7.22476 14.8389 7.2562 15.0706 7.31748 15.2958C6.97346 15.7562 6.7881 16.3154 6.7879 16.8877C6.78775 17.3113 6.88991 17.7421 7.10219 18.1393C7.34076 18.5852 7.69162 18.9385 8.09979 19.1777C8.38608 19.3456 8.70036 19.4565 9.02593 19.5087C9.19931 19.9745 9.49658 20.3765 9.87695 20.6741C10.3294 21.0288 10.9001 21.2385 11.5117 21.2385C11.5752 21.2385 11.6386 21.2365 11.7019 21.2317H11.7034H11.7043H11.7045H11.7046C11.9746 21.2121 12.2333 21.1514 12.4742 21.0576C12.6344 21.3144 12.8357 21.5413 13.0695 21.7284C13.5218 22.0906 14.097 22.3069 14.7135 22.3096C14.7157 22.31 14.7176 22.31 14.7195 22.31C14.7216 22.31 14.7236 22.31 14.7256 22.31H14.7259C14.7261 22.31 14.7261 22.31 14.7261 22.31H14.7266H14.7293C14.7302 22.31 14.7306 22.31 14.7314 22.31L14.7381 22.3096H14.74C14.7893 22.3093 14.8387 22.3072 14.888 22.3041H14.8887L14.9177 22.3034C15.1384 22.2873 15.3516 22.2444 15.5536 22.1778C15.8081 22.5558 16.1626 22.8747 16.6012 23.0862H16.601C16.971 23.2647 17.3658 23.3501 17.7532 23.3501C18.1305 23.3501 18.4995 23.2681 18.838 23.1164C19.3299 23.6388 20.0236 23.9526 20.7697 23.9533C20.9333 23.9533 21.0987 23.9382 21.2642 23.907C21.8998 23.7875 22.4444 23.4473 22.8255 22.9829H22.8253C23.0742 22.6804 23.2533 22.3234 23.349 21.9382C23.7886 21.895 24.2248 21.7419 24.6103 21.4707C24.9771 21.2132 25.2613 20.8768 25.4519 20.5012C25.6424 20.126 25.7406 19.712 25.7406 19.2942C25.7406 19.0158 25.6953 18.7363 25.6062 18.4669C25.835 18.2805 26.0373 18.0532 26.1987 17.7872C26.4596 17.358 26.5852 16.8795 26.5852 16.4092C26.5851 15.7216 26.3185 15.047 25.8202 14.5423ZM25.3973 17.3003C25.128 17.7438 24.6939 18.0199 24.2196 18.1019C24.0737 18.127 23.9759 18.2657 24.0009 18.4112C24.026 18.5571 24.1645 18.6549 24.3103 18.6299C24.4193 18.6113 24.5266 18.5842 24.6318 18.5499C24.7464 18.7868 24.8029 19.0408 24.8029 19.2942C24.8031 19.565 24.7391 19.8341 24.6158 20.0769C24.4924 20.3196 24.3105 20.5355 24.0715 20.7037C23.7707 20.9145 23.4291 21.0151 23.0887 21.0154C23.0621 21.0154 23.0355 21.0134 23.0089 21.012C23.0032 20.9674 22.9977 20.9231 22.9895 20.8788V20.8785C22.9308 20.5678 22.81 20.2835 22.644 20.0367L22.6237 20.0065L22.5962 19.9828C22.3932 19.8091 22.1239 19.5235 21.916 19.2324C21.8118 19.0871 21.7227 18.9402 21.6628 18.8094C21.6022 18.6786 21.5744 18.5643 21.5754 18.4967C21.5754 18.4665 21.5799 18.4462 21.5849 18.4325C21.5902 18.4191 21.5952 18.4112 21.6057 18.4003C21.7102 18.2959 21.7102 18.126 21.6057 18.0216C21.501 17.9169 21.3314 17.9169 21.2268 18.0216V18.0213C21.1616 18.0865 21.1124 18.1651 21.0821 18.2475C21.0519 18.3299 21.0398 18.4147 21.0398 18.4967C21.0408 18.6825 21.0969 18.8582 21.1759 19.0326C21.2955 19.2928 21.474 19.5513 21.6668 19.7871C21.8482 20.0089 22.0413 20.2077 22.2141 20.3601C22.3331 20.5434 22.42 20.7501 22.4629 20.9777C22.4809 21.0735 22.4908 21.1685 22.4922 21.2602L22.4924 21.2616C22.4926 21.2739 22.4927 21.286 22.4927 21.2983C22.4927 21.7034 22.3487 22.0861 22.101 22.3879C21.853 22.6893 21.504 22.9076 21.0909 22.9856C20.9828 23.0059 20.8755 23.0158 20.7699 23.0158C20.2018 23.0161 19.6762 22.7312 19.3604 22.2767C19.5304 22.1043 19.6752 21.9018 19.7861 21.6725C19.9236 21.3883 19.9956 21.0875 20.0089 20.7903C20.0154 20.6419 19.9007 20.517 19.7531 20.5105C19.6052 20.504 19.48 20.6186 19.4735 20.7662C19.4634 20.9938 19.4088 21.2218 19.3036 21.439L19.3034 21.4397C19.1911 21.6725 19.0339 21.8671 18.847 22.0213L18.846 22.0219C18.5389 22.2739 18.1503 22.4126 17.7533 22.4126C17.5031 22.4126 17.2495 22.3577 17.0084 22.2416C16.5617 22.026 16.2516 21.645 16.1144 21.207L16.1142 21.2067C16.0619 21.0405 16.0348 20.8664 16.0348 20.691C16.0348 20.4408 16.0897 20.1874 16.2062 19.9451C16.2706 19.8119 16.2145 19.6519 16.0813 19.5877C15.9481 19.5235 15.7879 19.5795 15.7237 19.7127C15.5716 20.0278 15.499 20.3625 15.499 20.6911C15.499 20.8503 15.5173 21.008 15.5502 21.1624C15.341 21.2767 15.105 21.3495 14.8499 21.3684H14.8494C14.8078 21.3712 14.7666 21.3725 14.7261 21.3725C14.324 21.3725 13.9513 21.2331 13.6551 20.9963C13.3972 20.7903 13.1997 20.5112 13.0941 20.1882C13.2827 20.0021 13.439 19.7845 13.5531 19.5431C13.6162 19.4096 13.5591 19.2496 13.4254 19.1864C13.2917 19.1233 13.1319 19.1803 13.0687 19.3142C12.9626 19.5387 12.8088 19.7378 12.6195 19.8974C12.3514 20.1236 12.0127 20.2695 11.6357 20.2966H11.6351C11.5937 20.2994 11.5526 20.3011 11.5119 20.3011C10.6612 20.3014 9.93518 19.6739 9.81261 18.8329L9.8123 18.8308L9.81195 18.8287C9.80541 18.7889 9.80077 18.747 9.79768 18.7038C9.79478 18.6618 9.79327 18.6207 9.79327 18.5795C9.79327 18.471 9.8034 18.3649 9.82258 18.2616C9.84938 18.116 9.75325 17.9763 9.60771 17.9492C9.46232 17.9224 9.32262 18.0186 9.29567 18.1641C9.27077 18.2987 9.25755 18.4377 9.25755 18.5795L9.25809 18.5949C9.01727 18.5681 8.78349 18.4916 8.57407 18.3687C8.3099 18.2139 8.08455 17.9877 7.92903 17.6972C7.79069 17.4384 7.72565 17.1617 7.72545 16.8881C7.72545 16.5352 7.835 16.1885 8.03769 15.8988C8.11525 16.0086 8.20368 16.113 8.30271 16.2101C8.52845 16.4319 8.79034 16.5964 9.06792 16.7034C9.20577 16.757 9.36094 16.6883 9.4143 16.5503C9.4677 16.4123 9.39907 16.2572 9.26122 16.2039C9.0494 16.1219 8.85066 15.9973 8.67812 15.8277L8.67778 15.8274C8.52605 15.6787 8.40812 15.5092 8.32313 15.3275C8.21552 15.0976 8.16146 14.848 8.16146 14.5981C8.16161 14.1631 8.32417 13.7309 8.65218 13.3955C8.93108 13.1116 9.28214 12.9454 9.647 12.8957H9.64734H9.64769L9.6487 12.8953C9.7258 12.885 9.80336 12.8796 9.88128 12.8799C10.3161 12.8802 10.7491 13.043 11.0844 13.3708C11.1901 13.4741 11.3597 13.4724 11.4632 13.3667C11.5667 13.261 11.5648 13.0914 11.4591 12.9881C11.0325 12.5703 10.4793 12.3567 9.92524 12.3461C9.98842 12.0897 10.1089 11.8514 10.2771 11.6506C10.5098 11.3726 10.83 11.1666 11.2112 11.0787C11.3406 11.0491 11.4697 11.0348 11.5967 11.0348C11.8212 11.0348 12.0394 11.0794 12.241 11.1611C12.1837 11.3605 12.1521 11.571 12.1521 11.7883C12.1521 11.9362 12.2721 12.056 12.4201 12.056C12.568 12.056 12.6878 11.9362 12.6878 11.7883C12.6878 11.5538 12.735 11.33 12.8193 11.1268C12.9487 10.8164 13.1674 10.5514 13.4426 10.3643C13.7183 10.1772 14.049 10.0687 14.4077 10.0684C14.9238 10.0687 15.3849 10.2946 15.7009 10.6547L15.7014 10.6551C15.9671 10.9575 16.1273 11.353 16.1275 11.7882C16.1275 11.9362 16.2472 12.056 16.3954 12.056C16.5434 12.056 16.6631 11.9362 16.6631 11.7882C16.6633 11.2936 16.5033 10.8342 16.2323 10.4624C16.371 10.2702 16.5478 10.1075 16.7524 9.98663C17.0085 9.83524 17.3058 9.74875 17.6257 9.74875C17.9932 9.74875 18.3313 9.86339 18.6106 10.0594C18.8899 10.2551 19.1086 10.5321 19.232 10.8552L19.2318 10.8548C19.3046 11.0461 19.3446 11.2517 19.3448 11.4686C19.3448 11.6166 19.4646 11.7364 19.6126 11.7364C19.7605 11.7364 19.8805 11.6166 19.8805 11.4686C19.8805 11.2475 19.8474 11.034 19.788 10.8322C20.1051 10.5366 20.5262 10.3694 20.9606 10.3694C21.1875 10.3694 21.4176 10.4147 21.64 10.5102C21.9502 10.6437 22.1993 10.8562 22.3769 11.115C22.5544 11.3735 22.6591 11.678 22.6768 11.9925C22.6785 12.0247 22.6795 12.0573 22.6795 12.0899C22.6793 12.3168 22.6345 12.5466 22.5391 12.769C22.4807 12.905 22.5434 13.0625 22.6793 13.1208C22.8153 13.1795 22.9728 13.1164 23.0312 12.9804C23.1306 12.7497 23.1877 12.5105 23.2071 12.2723C23.4697 12.2898 23.7255 12.3694 23.9521 12.5033C24.2107 12.6564 24.4307 12.8795 24.5816 13.1658V13.1661C24.7136 13.4161 24.7754 13.6825 24.7756 13.9458C24.7756 14.0666 24.7617 14.1861 24.7361 14.3031C24.5744 14.2407 24.4084 14.1977 24.241 14.1741C24.0946 14.1535 23.9592 14.2555 23.9386 14.4024C23.918 14.5486 24.02 14.6842 24.1666 14.7048C24.3346 14.7285 24.5003 14.7769 24.6592 14.8517C24.6873 14.8974 24.7289 14.9355 24.7819 14.9582C24.8151 14.9722 24.8494 14.9791 24.8834 14.9794C24.9822 15.0454 25.0722 15.1192 25.1525 15.2009L25.1489 15.1971L25.1532 15.2016C25.474 15.5256 25.6477 15.9633 25.6475 16.4092C25.6475 16.7136 25.5672 17.0209 25.3973 17.3003Z" fill="black"/>
</svg>
